<svg width="17" height="17" viewBox="0 0 17 17" fill="none" xmlns="http://www.w3.org/2000/svg">
<path d="M8.5 8.07895C7.67845 8.07895 6.87534 7.8567 6.19225 7.44031C5.50915 7.02391 4.97674 6.43208 4.66235 5.73964C4.34795 5.04721 4.26569 4.28527 4.42597 3.55019C4.58625 2.8151 4.98186 2.13988 5.56279 1.60991C6.14371 1.07995 6.88386 0.719033 7.68962 0.572815C8.49539 0.426598 9.33059 0.501642 10.0896 0.788458C10.8486 1.07527 11.4974 1.56098 11.9538 2.18416C12.4102 2.80733 12.6538 3.53999 12.6538 4.28947C12.6526 5.29416 12.2146 6.25738 11.4359 6.96781C10.6571 7.67823 9.60129 8.07783 8.5 8.07895ZM8.5 2.18421C8.04358 2.18421 7.59741 2.30768 7.21792 2.53901C6.83842 2.77034 6.54263 3.09914 6.36797 3.48383C6.19331 3.86851 6.14761 4.29181 6.23665 4.70019C6.32569 5.10857 6.54548 5.48369 6.86822 5.77812C7.19095 6.07255 7.60214 6.27305 8.04979 6.35429C8.49744 6.43552 8.96144 6.39383 9.38312 6.23448C9.80479 6.07514 10.1652 5.80531 10.4188 5.4591C10.6723 5.11289 10.8077 4.70586 10.8077 4.28947C10.8077 3.73112 10.5646 3.19564 10.1318 2.80083C9.69901 2.40602 9.11204 2.18421 8.5 2.18421Z" fill="#6B7280"/>
<path d="M13.5769 16.5H3.42308C3.17826 16.5 2.94347 16.4113 2.77036 16.2534C2.59725 16.0954 2.5 15.8812 2.5 15.6579V13.1316C2.50147 12.0153 2.9882 10.9451 3.85343 10.1558C4.71867 9.36643 5.89176 8.92239 7.11538 8.92105H9.88462C11.1082 8.92239 12.2813 9.36643 13.1466 10.1558C14.0118 10.9451 14.4985 12.0153 14.5 13.1316V15.6579C14.5 15.8812 14.4027 16.0954 14.2296 16.2534C14.0565 16.4113 13.8217 16.5 13.5769 16.5ZM4.34615 14.8158H12.6538V13.1316C12.6538 12.4616 12.3621 11.819 11.8428 11.3452C11.3234 10.8714 10.6191 10.6053 9.88462 10.6053H7.11538C6.38094 10.6053 5.67657 10.8714 5.15724 11.3452C4.63791 11.819 4.34615 12.4616 4.34615 13.1316V14.8158Z" fill="#6B7280"/>
</svg>
