<svg width="17" height="17" viewBox="0 0 17 17" fill="none" xmlns="http://www.w3.org/2000/svg">
<path d="M13.9735 10.0988C14.1566 10.0988 14.3348 10.0422 14.481 9.93738C14.6272 9.83259 14.7334 9.68538 14.7836 9.51807L16.4678 3.91877C16.5035 3.79973 16.5096 3.67445 16.4857 3.55277C16.4618 3.4311 16.4085 3.31636 16.3299 3.21758C16.2514 3.1188 16.1498 3.03868 16.0332 2.98352C15.9165 2.92836 15.788 2.89967 15.6577 2.8997H4.51679L4.01574 1.09593C3.96832 0.92513 3.86272 0.774046 3.71542 0.666246C3.56811 0.558445 3.38739 0.49999 3.20144 0.5H1.34209C1.11876 0.5 0.904566 0.584275 0.746643 0.734285C0.58872 0.884295 0.5 1.08775 0.5 1.2999C0.5 1.51205 0.58872 1.7155 0.746643 1.86551C0.904566 2.01552 1.11876 2.0998 1.34209 2.0998H2.55302L3.05828 3.90357V3.91157V3.91877L4.74247 9.51807L5.37067 11.9066C4.95479 12.0817 4.59642 12.3603 4.3334 12.7129C4.07038 13.0655 3.91247 13.479 3.87635 13.9098C3.84023 14.3405 3.92724 14.7726 4.12818 15.1603C4.32913 15.548 4.63655 15.8769 5.018 16.1124C5.39945 16.3479 5.84076 16.4812 6.29534 16.4981C6.74991 16.5151 7.20088 16.4152 7.60063 16.2089C8.00038 16.0026 8.33406 15.6976 8.56645 15.3261C8.79884 14.9546 8.92131 14.5304 8.92093 14.0983C8.91814 13.8252 8.86572 13.5546 8.76599 13.2984H10.7601C10.6603 13.5546 10.6079 13.8252 10.6051 14.0983C10.6051 14.5729 10.7533 15.0369 11.0309 15.4315C11.3085 15.8261 11.703 16.1337 12.1646 16.3153C12.6263 16.497 13.1342 16.5445 13.6243 16.4519C14.1143 16.3593 14.5644 16.1307 14.9177 15.7951C15.2711 15.4595 15.5117 15.032 15.6091 14.5665C15.7066 14.101 15.6566 13.6185 15.4654 13.18C15.2742 12.7415 14.9504 12.3667 14.5349 12.103C14.1195 11.8393 13.6311 11.6986 13.1314 11.6986H7.05149L6.63044 10.0988H13.9735ZM14.5411 4.4995L13.3386 8.499H6.1875L4.98499 4.4995H14.5411ZM7.23675 14.0983C7.23675 14.2565 7.18736 14.4112 7.09483 14.5427C7.0023 14.6742 6.87078 14.7768 6.71691 14.8373C6.56304 14.8978 6.39372 14.9137 6.23037 14.8828C6.06702 14.852 5.91697 14.7758 5.7992 14.6639C5.68143 14.552 5.60123 14.4095 5.56874 14.2543C5.53625 14.0992 5.55292 13.9384 5.61666 13.7922C5.6804 13.646 5.78833 13.5211 5.92681 13.4332C6.06529 13.3453 6.2281 13.2984 6.39465 13.2984C6.61799 13.2984 6.83218 13.3827 6.9901 13.5327C7.14803 13.6827 7.23675 13.8861 7.23675 14.0983ZM13.1314 14.8982C12.9648 14.8982 12.802 14.8513 12.6636 14.7634C12.5251 14.6755 12.4171 14.5506 12.3534 14.4044C12.2897 14.2582 12.273 14.0974 12.3055 13.9422C12.338 13.7871 12.4182 13.6445 12.5359 13.5327C12.6537 13.4208 12.8038 13.3446 12.9671 13.3138C13.1305 13.2829 13.2998 13.2987 13.4537 13.3593C13.6075 13.4198 13.739 13.5224 13.8316 13.6539C13.9241 13.7854 13.9735 13.9401 13.9735 14.0983C13.9735 14.3104 13.8848 14.5139 13.7268 14.6639C13.5689 14.8139 13.3547 14.8982 13.1314 14.8982Z" fill="#6B7280"/>
</svg>
