<svg width="17" height="16" viewBox="0 0 17 16" fill="none" xmlns="http://www.w3.org/2000/svg">
<g clip-path="url(#clip0_102_743)">
<path d="M12.5078 11.71C12.5843 11.7094 12.6579 11.7381 12.7139 11.79L15.9121 14.9883C15.954 15.0302 15.9826 15.0835 15.9941 15.1416C16.0057 15.1996 16.0001 15.2598 15.9775 15.3145C15.9548 15.3693 15.9155 15.4163 15.8662 15.4492C15.817 15.4821 15.7594 15.5 15.7002 15.5L15.6416 15.4941C15.5839 15.4826 15.5305 15.4543 15.4883 15.4121L12.2939 12.2178C12.2395 12.1612 12.2093 12.0853 12.21 12.0068C12.2107 11.9283 12.2424 11.8534 12.2979 11.7979C12.3535 11.7422 12.4291 11.7106 12.5078 11.71ZM5.74902 0.613281C6.89352 0.385631 8.08011 0.502663 9.1582 0.949219C10.2361 1.39577 11.1574 2.15196 11.8057 3.12207C12.4135 4.0317 12.7555 5.09123 12.7959 6.18164L12.7998 6.40039C12.7978 7.96423 12.176 9.46341 11.0703 10.5693C9.96411 11.6755 8.46382 12.2971 6.89941 12.2988C5.73272 12.2987 4.59215 11.9538 3.62207 11.3057C2.65195 10.6574 1.89579 9.73611 1.44922 8.6582C1.00267 7.58014 0.885645 6.39349 1.11328 5.24902C1.34094 4.10454 1.90338 3.05364 2.72852 2.22852C3.55366 1.40339 4.60452 0.840934 5.74902 0.613281ZM6.90039 1.09961C5.85214 1.09961 4.82667 1.41079 3.95508 1.99316C3.08363 2.57552 2.40501 3.40373 2.00391 4.37207C1.60283 5.34039 1.49773 6.40562 1.70215 7.43359C1.90664 8.46164 2.41118 9.40626 3.15234 10.1475C3.89357 10.8887 4.8381 11.3941 5.86621 11.5986C6.89426 11.8031 7.96032 11.698 8.92871 11.2969C9.89697 10.8958 10.7243 10.2161 11.3066 9.34473C11.8889 8.47326 12.2001 7.4485 12.2002 6.40039V6.39941C12.1988 4.99436 11.64 3.64684 10.6465 2.65332C9.65294 1.65987 8.30541 1.10101 6.90039 1.09961Z" fill="#6B7280" stroke="#6B7280"/>
</g>
<defs>
<clipPath id="clip0_102_743">
<rect width="16" height="16" fill="white" transform="translate(0.5)"/>
</clipPath>
</defs>
</svg>
