<svg width="32" height="33" viewBox="0 0 32 33" fill="none" xmlns="http://www.w3.org/2000/svg">
<path d="M17.3223 9.00144C17.3223 6.02803 20.9383 4.56257 23.0084 6.69705L29.1666 13.047C30.4228 14.3422 31.1253 16.0757 31.1253 17.8801V24.3326C31.1253 27.306 27.5093 28.7714 25.4392 26.6369L19.281 20.287C18.0248 18.9917 17.3223 17.2582 17.3223 15.4539V9.00144Z" fill="#9E97FF"/>
<path d="M8.76758 8.66745C8.76758 5.69405 12.3836 4.22858 14.4537 6.36307L20.3304 12.4227C21.7672 13.9042 22.5707 15.8868 22.5707 17.9505V23.9986C22.5707 26.972 18.9546 28.4374 16.8845 26.303L10.7263 19.9531C9.4701 18.6578 8.76758 16.9243 8.76758 15.1199V8.66745Z" fill="#4CBFFF"/>
<path d="M0.5 9.00144C0.5 6.02803 4.11605 4.56257 6.18611 6.69705L12.3444 13.047C13.6005 14.3422 14.3031 16.0757 14.3031 17.8801V24.3326C14.3031 27.306 10.687 28.7714 8.61697 26.6369L2.45872 20.287C1.20253 18.9917 0.5 17.2582 0.5 15.4539V9.00144Z" fill="#4A3AFF"/>
</svg>
